<?xml version="1.0" encoding="UTF-8"?>
<svg width="256" height="256" version="1.1" viewBox="0 0 67.732 67.733" xmlns="http://www.w3.org/2000/svg"><g transform="matrix(4.7384 0 0 4.7384 174.91 -1237.2)" style="paint-order:stroke fill markers"><path d="m-23.085 268.24a6.6817 6.6817 0 0 1-6.6817 6.6817 6.6817 6.6817 0 0 1-6.6817-6.6817 6.6817 6.6817 0 0 1 6.6817-6.6817 6.6817 6.6817 0 0 1 6.6817 6.6817z" fill="#ffb380" stroke="#9a6e56" stroke-linecap="round" stroke-linejoin="round" stroke-width=".93101" style="paint-order:stroke fill markers"/><g fill="#988178" style="paint-order:stroke fill markers"><path d="m-24.728 265.38a1.4896 1.1548 0 0 1-1.4896 1.1548 1.4896 1.1548 0 0 1-1.4896-1.1548 1.4896 1.1548 0 0 1 1.4896-1.1548 1.4896 1.1548 0 0 1 1.4896 1.1548z" style="paint-order:stroke fill markers"/><path d="m-31.811 266.18a0.85172 1.9107 0 0 1-0.85172 1.9107 0.85172 1.9107 0 0 1-0.85172-1.9107 0.85172 1.9107 0 0 1 0.85172-1.9107 0.85172 1.9107 0 0 1 0.85172 1.9107z" style="paint-order:stroke fill markers"/><path d="m-25.864 272.01a0.99346 1.0367 0 0 1-0.99346 1.0366 0.99346 1.0367 0 0 1-0.99346-1.0366 0.99346 1.0367 0 0 1 0.99346-1.0366 0.99346 1.0367 0 0 1 0.99346 1.0366z" style="paint-order:stroke fill markers"/><path transform="rotate(30)" d="m111.08 246.99a1.4896 1.1548 0 0 1-1.4896 1.1548 1.4896 1.1548 0 0 1-1.4896-1.1548 1.4896 1.1548 0 0 1 1.4896-1.1548 1.4896 1.1548 0 0 1 1.4896 1.1548z" style="paint-order:stroke fill markers"/><path transform="matrix(.6491 .7607 -.66027 .75103 0 0)" d="m156.29 203.28a1.1364 1.4469 0 0 1-1.1364 1.4469 1.1364 1.4469 0 0 1-1.1364-1.4469 1.1364 1.4469 0 0 1 1.1364-1.4469 1.1364 1.4469 0 0 1 1.1364 1.4469z" style="paint-order:stroke fill markers"/><path transform="matrix(.77178 .63589 -.72338 .69045 0 0)" d="m171.93 223.22a0.8162 1.0094 0 0 1-0.81621 1.0094 0.8162 1.0094 0 0 1-0.8162-1.0094 0.8162 1.0094 0 0 1 0.8162-1.0094 0.8162 1.0094 0 0 1 0.81621 1.0094z" style="paint-order:stroke fill markers"/><path transform="matrix(-.63698 .77088 -.99938 -.035121 0 0)" d="m346.61-189.97a0.95661 1.3455 0 0 1-0.9566 1.3455 0.95661 1.3455 0 0 1-0.95661-1.3455 0.95661 1.3455 0 0 1 0.95661-1.3455 0.95661 1.3455 0 0 1 0.9566 1.3455z" style="paint-order:stroke fill markers"/></g></g></svg>
