<?xml version="1.0" encoding="UTF-8"?>
<svg width="256" height="256" version="1.1" viewBox="0 0 67.732 67.733" xmlns="http://www.w3.org/2000/svg"><g transform="matrix(4.7384 0 0 4.7384 174.91 -1237.2)" style="paint-order:stroke fill markers"><path d="m-23.085 268.24a6.6817 6.6817 0 0 1-6.6817 6.6817 6.6817 6.6817 0 0 1-6.6817-6.6817 6.6817 6.6817 0 0 1 6.6817-6.6817 6.6817 6.6817 0 0 1 6.6817 6.6817z" fill="#ffb380" stroke="#9a6e56" stroke-linecap="round" stroke-linejoin="round" stroke-width=".93101" style="paint-order:stroke fill markers"/><g fill="#988178" style="paint-order:stroke fill markers"><path d="m-24.728 265.38a1.4896 1.1548 0 0 1-1.4896 1.1548 1.4896 1.1548 0 0 1-1.4896-1.1548 1.4896 1.1548 0 0 1 1.4896-1.1548 1.4896 1.1548 0 0 1 1.4896 1.1548z" style="paint-order:stroke fill markers"/><path d="m-31.811 266.18a0.85172 1.9107 0 0 1-0.85172 1.9107 0.85172 1.9107 0 0 1-0.85172-1.9107 0.85172 1.9107 0 0 1 0.85172-1.9107 0.85172 1.9107 0 0 1 0.85172 1.9107z" style="paint-order:stroke fill markers"/><path d="m-25.864 272.01a0.99346 1.0367 0 0 1-0.99346 1.0366 0.99346 1.0367 0 0 1-0.99346-1.0366 0.99346 1.0367 0 0 1 0.99346-1.0366 0.99346 1.0367 0 0 1 0.99346 1.0366z" style="paint-order:stroke fill markers"/><path transform="rotate(30)" d="m111.08 246.99a1.4896 1.1548 0 0 1-1.4896 1.1548 1.4896 1.1548 0 0 1-1.4896-1.1548 1.4896 1.1548 0 0 1 1.4896-1.1548 1.4896 1.1548 0 0 1 1.4896 1.1548z" style="paint-order:stroke fill markers"/><path transform="matrix(.6491 .7607 -.66027 .75103 0 0)" d="m156.29 203.28a1.1364 1.4469 0 0 1-1.1364 1.4469 1.1364 1.4469 0 0 1-1.1364-1.4469 1.1364 1.4469 0 0 1 1.1364-1.4469 1.1364 1.4469 0 0 1 1.1364 1.4469z" style="paint-order:stroke fill markers"/><path transform="matrix(.77178 .63589 -.72338 .69045 0 0)" d="m171.93 223.22a0.8162 1.0094 0 0 1-0.81621 1.0094 0.8162 1.0094 0 0 1-0.8162-1.0094 0.8162 1.0094 0 0 1 0.8162-1.0094 0.8162 1.0094 0 0 1 0.81621 1.0094z" style="paint-order:stroke fill markers"/><path transform="matrix(-.63698 .77088 -.99938 -.035121 0 0)" d="m346.61-189.97a0.95661 1.3455 0 0 1-0.9566 1.3455 0.95661 1.3455 0 0 1-0.95661-1.3455 0.95661 1.3455 0 0 1 0.95661-1.3455 0.95661 1.3455 0 0 1 0.9566 1.3455z" style="paint-order:stroke fill markers"/></g></g><g transform="matrix(.0010692 0 0 .0010692 33.832 33.827)" stroke-width=".26458" aria-label="CookieBox"><path d="m11.228 40.505q-1.6722 0-2.8046-1.1324t-1.1324-2.8257 1.1324-2.8257 2.8046-1.1324q1.7145 0 2.7834 1.2382l-0.67733 0.65616q-0.77258-0.96308-2.1061-0.96308-1.2382 0-2.0955 0.83608-0.84666 0.83608-0.84666 2.1907t0.84666 2.1907q0.85725 0.83608 2.0955 0.83608 1.3652 0 2.3283-1.1007l0.67733 0.67733q-0.51858 0.62441-1.3017 0.99483-0.78316 0.35983-1.7039 0.35983z"/><path d="m15.451 35.774q0.75141-0.79375 1.9156-0.79375t1.9156 0.79375q0.75141 0.78316 0.75141 1.9685t-0.75141 1.9791q-0.75141 0.78316-1.9156 0.78316t-1.9156-0.78316q-0.75141-0.79375-0.75141-1.9791t0.75141-1.9685zm0.71966 3.3337q0.508 0.508 1.1959 0.508t1.1853-0.508q0.508-0.51858 0.508-1.3652t-0.508-1.3547q-0.49742-0.51858-1.1853-0.51858t-1.1959 0.51858q-0.49741 0.508-0.49741 1.3547t0.49741 1.3652z"/><path d="m21.383 35.774q0.75141-0.79375 1.9156-0.79375t1.9156 0.79375q0.75141 0.78316 0.75141 1.9685t-0.75141 1.9791q-0.75141 0.78316-1.9156 0.78316t-1.9156-0.78316q-0.75141-0.79375-0.75141-1.9791t0.75141-1.9685zm0.71966 3.3337q0.508 0.508 1.1959 0.508t1.1853-0.508q0.508-0.51858 0.508-1.3652t-0.508-1.3547q-0.49742-0.51858-1.1853-0.51858t-1.1959 0.51858q-0.49741 0.508-0.49741 1.3547t0.49741 1.3652z"/><path d="m27.772 32.758v4.6672l2.2437-2.2754h1.2488v0.04233l-2.0214 2.0214 2.1167 3.0797v0.04233h-1.1747l-1.6298-2.4447-0.78316 0.78316v1.6616h-0.97366v-7.5776z"/><path d="m32.962 33.848q-0.20108 0.20108-0.48683 0.20108t-0.48683-0.20108q-0.20108-0.20108-0.20108-0.48683t0.20108-0.48683 0.48683-0.20108 0.48683 0.20108q0.20108 0.20108 0.20108 0.48683t-0.20108 0.48683zm0 6.4876h-0.97366v-5.1858h0.97366z"/><path d="m36.527 40.505q-1.1747 0-1.9156-0.78316-0.73025-0.78316-0.73025-1.9791 0-1.1324 0.70908-1.9473 0.71966-0.81491 1.8309-0.81491 1.1536 0 1.8415 0.75141 0.6985 0.75141 0.6985 2.0108l-0.01058 0.17992h-4.0957q0.04233 0.78316 0.51858 1.2382 0.48683 0.45508 1.1324 0.45508 1.0477 0 1.4182-0.889l0.86783 0.35983q-0.254 0.60325-0.83608 1.016-0.58208 0.40216-1.4287 0.40216zm1.397-3.3866q-0.03175-0.4445-0.41275-0.84666-0.37042-0.40216-1.1112-0.40216-0.53975 0-0.94191 0.33866-0.39158 0.33866-0.53975 0.91016z"/><path d="m40.011 40.336v-7.5776h2.7411q0.889 0 1.5346 0.59266 0.65616 0.58208 0.65616 1.4711 0 0.53975-0.28575 0.9525-0.27517 0.41275-0.74083 0.62441v0.04233q0.56091 0.1905 0.92075 0.65616 0.35983 0.46566 0.35983 1.0795 0 0.93133-0.68791 1.5452-0.67733 0.61383-1.6087 0.61383zm0.97366-4.3286h1.7674q0.55033 0 0.87841-0.35983 0.33866-0.37042 0.33866-0.80433 0-0.43392-0.32808-0.79375-0.3175-0.35983-0.84666-0.35983h-1.8097zm0 3.3972h1.9579q0.56091 0 0.91016-0.39158t0.34925-0.85725-0.35983-0.84666q-0.35983-0.39158-0.94191-0.39158h-1.9156z"/><path d="m46.58 35.774q0.75141-0.79375 1.9156-0.79375t1.9156 0.79375q0.75141 0.78316 0.75141 1.9685t-0.75141 1.9791q-0.75141 0.78316-1.9156 0.78316t-1.9156-0.78316q-0.75141-0.79375-0.75141-1.9791t0.75141-1.9685zm0.71966 3.3337q0.508 0.508 1.1959 0.508t1.1853-0.508q0.508-0.51858 0.508-1.3652t-0.508-1.3547q-0.49741-0.51858-1.1853-0.51858t-1.1959 0.51858q-0.49741 0.508-0.49741 1.3547t0.49741 1.3652z"/><path d="m56.272 40.336h-1.143l-1.2806-1.9156-1.2594 1.9156h-1.143l1.8309-2.6352-1.7886-2.5506h1.1007l1.2806 1.8309 1.2171-1.8309h1.143l-1.8097 2.5506z"/></g></svg>
